PathFileType	4	(X/Y/Z)	C:/Users/beibeiliu/ov580/test_trc/User3\sequence.14_training_dense_right.trc
DataRate	CameraRate	NumFrames	NumMarkers	Units	OrigDataRate	OrigDataStartFrame	OrigNumFrames
120	120	18	19	mm	120	31	246
Frame#	Time	ThumbCMC			ThumbMCP			ThumbIP			ThumbTip			IndexMCP			IndexPIP			IndexTip			MiddleMCP			MiddlePIP			MiddleTip			RingMCP			RingPIP			RingTip			PinkyMCP			PinkyPIP			PinkyTip			BackHand1			BackHand2			BackHand3	
		X0	Y0	Z0	X1	Y1	Z1	X2	Y2	Z2	X3	Y3	Z3	X4	Y4	Z4	X5	Y5	Z5	X6	Y6	Z6	X7	Y7	Z7	X8	Y8	Z8	X9	Y9	Z9	X10	Y10	Z10	X11	Y11	Z11	X12	Y12	Z12	X13	Y13	Z13	X14	Y14	Z14	X15	Y15	Z15	X16	Y16	Z16	X17	Y17	Z17	X18	Y18	Z18	
30	0.25	144.275	-32.9504	19.6029	123.392	-48.189	6.48486	104.236	-62.0048	-6.94414	92.1185	-75.133	-19.5395	151.153	-36.2785	-55.0762	144.952	-43.4324	-80.3738	135.885	-50.8969	-100.579	184.793	-32.417	-63.1212	183.819	-38.8149	-92.5497	182.542	-52.969	-120.958	209.212	-38.584	-53.8552	212.531	-45.0343	-78.6639	222.3	-61.2064	-103.1	227.124	-50.0312	-35.1369	238.223	-60.6273	-52.2615	251.026	-70.518	-65.3186	204.756	-20.0905	-7.15454	206.271	-11.1019	19.6578	171.303	-12.1476	6.15611	
31	0.258333	145.08	-32.2728	20.874	122.49	-49.161	4.43752	103.808	-61.6891	-8.2294	88.6275	-75.9046	-21.2458	155.541	-35.3042	-54.4027	142.593	-42.6289	-80.3975	136.348	-51.6993	-102.882	185.302	-30.9162	-64.28	185.179	-38.1073	-91.1047	180.309	-52.9959	-122.687	207.495	-38.5693	-54.9189	214.614	-45.9378	-78.7695	217.383	-58.6777	-100.543	229.085	-49.7606	-33.3732	238.123	-60.0464	-50.2556	249.019	-72.0395	-67.6443	202.503	-19.9241	-7.96399	204.071	-7.89872	21.408	174.288	-12.4327	5.45935	
32	0.266667	142.612	-30.3223	23.9501	120.812	-48.03	5.29386	100.136	-60.6348	-9.32644	88.6134	-75.2337	-22.1485	154.119	-33.9355	-53.2141	138.636	-42.4222	-80.3051	133.125	-51.132	-99.1624	183.278	-30.7719	-60.2747	180.157	-37.47	-91.5788	182.773	-52.0101	-120.565	207.066	-37.6241	-52.626	212.222	-44.2443	-77.7472	220.408	-60.2512	-101.752	226.468	-47.9538	-33.0987	240.957	-59.354	-48.1513	249.385	-74.2248	-68.55	205.069	-17.4648	-6.66266	208.319	-10.2064	20.2282	173.952	-12.0329	2.7356	
33	0.275	143.798	-31.0392	22.9168	121.888	-45.6552	10.2697	101.368	-59.439	-5.48782	86.2626	-72.5558	-21.4097	149.099	-33.1046	-55.6795	140.021	-39.7276	-78.0369	135.357	-49.9115	-100.765	185.691	-30.8028	-59.5335	181.287	-35.9698	-90.3876	179.523	-49.5574	-118.394	208.485	-37.458	-55.276	214.027	-43.5832	-77.6063	221.17	-58.0589	-98.4317	227.8	-47.7357	-35.1435	239.571	-57.9955	-49.2752	252.479	-71.7099	-68.4151	203.111	-15.5143	-6.96555	204.717	-9.12179	18.6734	169.161	-11.2452	7.15792	
34	0.283333	144.482	-31.2288	20.7178	120.073	-45.1942	6.94032	104.991	-57.9815	-6.54273	85.9011	-70.8917	-21.3591	154.28	-32.9138	-55.3249	137.355	-39.1085	-80.9202	132.849	-47.8394	-100.211	179.913	-29.0389	-63.6798	180.59	-35.1605	-89.2606	180.564	-50.8285	-120.954	205.135	-36.295	-53.6631	212.639	-42.9028	-75.4568	216.761	-58.0305	-103.256	226.456	-47.4384	-35.092	238.938	-58.3679	-50.0776	247.766	-69.3943	-68.1888	204.144	-17.7434	-4.3808	204.347	-9.2142	22.7485	170.148	-11.5846	4.57712	
35	0.291667	144.871	-29.6268	24.2682	119.656	-44.694	5.28058	100.293	-57.1221	-7.61658	90.4167	-70.7396	-22.6793	148.671	-30.8778	-56.4714	142.619	-38.0048	-78.2479	131.159	-45.8671	-99.6042	181.754	-27.5981	-64.6189	181.193	-34.0317	-91.0164	182.798	-47.9728	-119.469	207.285	-35.6633	-51.5537	209.647	-42.3977	-79.6532	218.493	-57.7382	-103.402	226.281	-46.1422	-37.3504	235.115	-55.6529	-49.0217	247.14	-69.5427	-67.7903	200.133	-14.6856	-5.7215	204.299	-7.56884	24.8637	172.461	-9.70051	5.76581	
36	0.3	143.548	-29.6051	20.3544	122.471	-44.2037	8.13657	99.7674	-57.7529	-12.27	88.1996	-70.4517	-22.9606	153.108	-29.8304	-56.6296	139.344	-35.6969	-78.4408	134.941	-44.897	-100.478	178.618	-26.8717	-63.8539	180.711	-33.3948	-89.4537	177.662	-46.4506	-122.034	204.923	-34.4672	-51.8964	210.506	-42.4868	-79.9736	215.166	-56.9022	-103.135	226.516	-45.2617	-32.4875	239.705	-56.6526	-53.4413	245.533	-64.9983	-67.0615	200.295	-16.3942	-5.22938	202.43	-7.41256	19.5143	171.207	-8.79937	8.58596	
37	0.308333	145.143	-29.6466	24.1978	120.443	-43.7506	9.05974	98.5421	-57.9506	-11.6867	87.8717	-71.3144	-23.9138	153.014	-30.0142	-54.6289	143.052	-34.5914	-78.8635	129.91	-43.4783	-101.165	181.531	-25.8096	-63.4205	183.134	-32.5505	-90.6442	181.322	-46.3516	-121.386	205.68	-32.7456	-51.8461	210.446	-41.3189	-80.3805	213.298	-53.8231	-101.709	228.284	-45.2827	-34.4102	238.98	-55.8335	-53.2302	245.961	-66.7384	-70.9288	201.999	-13.8676	-4.38941	206.326	-6.52964	19.6147	170.912	-9.55602	3.40885	
38	0.316667	143.929	-28.3592	24.7498	121.239	-43.0379	8.6711	100.078	-56.8982	-11.1887	89.0891	-70.2374	-20.8807	151.479	-29.4243	-57.7493	139.104	-34.3334	-80.1125	131.308	-44.6885	-102.912	184.113	-25.9004	-61.8554	179.595	-31.544	-89.5163	177.219	-45.1508	-121.888	203.867	-33.0121	-55.5194	211.135	-38.5339	-76.5039	212.684	-52.5041	-101.875	225.848	-43.8545	-33.3409	237.642	-53.5029	-48.5085	244.622	-64.6222	-67.7619	201.011	-15.4016	-4.05583	202.615	-6.58795	19.9371	171.383	-7.61491	4.42644	
39	0.325	140.239	-27.8921	24.7803	120.872	-43.2701	4.11633	103.869	-56.7078	-12.8714	90.4811	-69.5862	-21.7331	151.374	-28.7799	-51.406	138.942	-32.0856	-76.9492	130.052	-42.0145	-101.293	180.126	-24.8115	-63.9369	181.439	-31.81	-92.4597	180.876	-45.9333	-121.807	207.183	-32.9703	-55.6859	209.921	-39.0046	-78.8487	213.431	-53.9299	-103.415	223.822	-43.017	-36.0042	238.049	-53.5307	-52.0268	246.823	-66.6396	-70.1145	204.046	-15.1207	-5.07532	206.008	-7.15415	23.6328	169.833	-7.36546	4.49707	
40	0.333333	141.217	-27.9662	21.2255	122.334	-43.0747	6.32297	102.248	-56.174	-10.3753	90.564	-68.4073	-24.5418	151.773	-27.3744	-53.0208	143.327	-32.2842	-79.0613	133.425	-42.6305	-105.19	185.136	-25.0496	-62.0774	181.292	-31.0735	-88.6315	181.013	-44.9408	-121.116	208.338	-33.2459	-51.028	210.971	-38.9059	-78.1609	217.186	-52.311	-101.125	228.874	-43.8236	-33.9212	240.285	-54.507	-51.4101	249.476	-66.6441	-68.0576	201.811	-15.1664	-5.91253	205.57	-5.50649	22.017	173.298	-9.61889	5.84392	
41	0.341667	143.657	-28.7692	21.3727	121.395	-42.5988	8.49235	103.944	-56.402	-12.7045	88.4149	-69.7217	-26.2918	150.911	-27.8383	-53.9225	142.299	-32.9011	-80.2205	132.828	-41.243	-101.612	182.888	-25.3317	-65.4496	184.874	-32.2116	-91.3746	184.458	-46.9448	-122.221	208.728	-33.0506	-54.8926	210.546	-37.7534	-76.8759	218.174	-54.8385	-103.777	228.382	-43.9064	-32.0039	238.068	-55.3174	-54.7365	249.516	-66.9916	-66.9704	203.636	-13.7921	-4.36382	205.422	-8.97764	19.7811	169.889	-9.24267	6.06567	
42	0.35	144.954	-28.9365	19.8685	123.318	-43.2094	7.74764	102.097	-57.1271	-12.4626	87.3902	-70.0412	-26.2469	154.349	-29.1052	-58.3754	145.073	-33.547	-79.4642	135.675	-42.0864	-102.347	186.282	-26.0681	-65.641	185.739	-31.5447	-89.0871	183.259	-45.5862	-120.788	205.286	-33.5412	-53.552	212.194	-39.0045	-78.9493	215.026	-51.3608	-101.215	229.629	-44.2025	-32.6948	240.132	-53.151	-50.0045	249.894	-66.8763	-69.1616	203.478	-14.1956	-4.66586	206.889	-8.37587	19.3191	170.829	-10.3942	2.52466	
43	0.358333	142.268	-28.861	20.9901	124.604	-43.9525	6.4327	104.321	-57.1479	-10.3316	91.7188	-69.8222	-23.3837	156.555	-29.4129	-54.1129	140.793	-33.9547	-82.6169	134.064	-41.7482	-102.09	184.396	-27.4852	-60.6209	181.052	-32.1581	-90.977	180.662	-44.6629	-119.166	206.449	-32.5232	-51.8564	211.865	-39.7847	-80.7165	219.803	-52.7572	-101.143	230.398	-43.8765	-34.6096	237.78	-53.9088	-52.4434	249.063	-67.7392	-68.5869	202.734	-14.7879	-4.49113	205.988	-7.1773	19.2713	174.37	-10.0963	6.4144	
44	0.366667	146.103	-31.0375	18.1671	125.334	-43.9196	7.19486	104.987	-57.531	-9.40723	90.625	-70.7396	-23.2426	152.928	-28.8176	-57.8196	141.726	-33.8965	-79.0668	137.583	-43.2769	-104.797	183.149	-27.2844	-63.5428	184.78	-32.7834	-91.9269	181.92	-45.6213	-121.166	207.671	-33.8559	-55.6423	212.077	-39.764	-81.368	219.181	-53.5652	-101.755	225.681	-45.0244	-35.5058	239.821	-55.881	-53.0979	245.825	-67.9809	-70.3315	203.986	-14.5496	-8.94382	206.411	-8.54259	23.2577	171.832	-9.884	6.73682	
45	0.375	145.933	-30.635	19.5477	123.07	-44.296	5.14198	101.502	-56.4581	-10.5545	87.3692	-70.131	-24.1266	156.869	-29.0782	-53.6751	141.39	-34.6565	-78.7493	134.383	-44.7058	-104.779	182.335	-26.2704	-62.0004	181.31	-31.2255	-88.9078	183.244	-46.2747	-120.531	205.098	-33.932	-50.9183	212.188	-40.3457	-80.0559	218.231	-53.04	-102.586	229.944	-44.8447	-35.5263	236.398	-54.2491	-50.6218	251.693	-68.2182	-67.8778	201.323	-15.6799	-5.82014	209.021	-6.64406	23.7593	169.325	-9.78892	4.01439	
46	0.383333	142.509	-30.1891	20.1526	124.192	-43.6318	5.68908	100.668	-57.6827	-12.5398	91.7155	-69.7295	-22.5373	152.793	-29.9802	-53.6398	144.583	-34.755	-80.1606	136.89	-45.9507	-106.701	184.201	-26.8258	-61.3004	182.378	-32.0126	-91.3119	183.734	-47.325	-120.081	205.162	-33.4197	-51.1026	212.101	-40.1443	-79.8564	218.028	-54.3087	-102.846	231.859	-45.1221	-35.5386	242.177	-57.7997	-53.1326	247.453	-68.6238	-69.0479	206.413	-17.8397	-8.96381	208.68	-7.77155	19.0838	173.544	-10.0893	4.47425	
47	0.391667	147.328	-28.9052	22.1918	121.594	-42.6914	6.38842	101.414	-55.5143	-9.5468	93.3688	-70.0486	-26.1161	153.072	-29.6535	-52.4909	146.423	-34.1392	-82.0318	134.563	-44.0662	-102.734	187.507	-26.7483	-63.2476	184.443	-33.0826	-94.2588	182.249	-48.95	-123.006	207.364	-33.4725	-50.767	216.212	-40.7496	-80.3182	218.582	-54.2093	-101.387	229.839	-45.8747	-35.1415	237.251	-56.0047	-53.082	247.315	-67.544	-69.3688	206.909	-15.0824	-5.92376	206.291	-6.58119	22.9833	172.894	-8.92739	7.88218	
